/* XPM */
static char *DICOM[]={
"22 22 62 1",
"2 c #000000",
"# c #008080",
"Z c #0c0c0c",
"6 c #131313",
"a c #1e8f8f",
"f c #239191",
"e c #279393",
"d c #2a9595",
"b c #2c9696",
"D c #303030",
"c c #309898",
"v c #377373",
"P c #383838",
"o c #3e5353",
"k c #484848",
"K c #4a4a4a",
"j c #4e5656",
"p c #508080",
"B c #50a7a7",
"q c #535353",
"g c #59acac",
"C c #5f9b9b",
"1 c #676767",
"Q c #696969",
"H c #6b6b6b",
"h c #6bb5b5",
"5 c #6c6c6c",
"t c #767676",
"z c #787878",
"u c #79b1b1",
"A c #7cbdbd",
"y c #7f7f7f",
"0 c #828282",
"l c #848484",
"Y c #87877b",
"3 c #878787",
"O c #888888",
"w c #898989",
"i c #8cacac",
"R c #8f8f62",
"T c #979790",
"L c #989870",
"I c #9c9c9c",
"n c #a3a3a3",
"7 c #a7a7a7",
"S c #a8a82d",
"s c #d3d3d3",
"F c #d7d7d7",
"r c #dbdbdb",
"J c #dfdfdf",
"m c #e0eaea",
"V c #e3e3e3",
"W c #eaeaea",
"E c #efefef",
"N c #f1f1f1",
"4 c #f3f3f3",
"G c #f7f7f7",
"U c #f8f8f8",
"x c #f9f9f9",
"M c #fefefa",
"X c #fffff5",
". c #ffffff",
"......................",
"......................",
"......................",
"......................",
"#ab..#..bc..db...e#f..",
"#..#.#.#...#..#.#.#.#.",
"#..#.#.#...#..#.#.#.#.",
"#gh..#.#....gh..#.#.#.",
".......ijklm..........",
"......nopppqr.........",
".....stu###vwx........",
".....yz.ABBCDE........",
".....yz....FDE........",
".....GHIJJJKLM........",
"......NOKPQRST........",
".......UVJWXYZ0x......",
".............123......",
".............4567.....",
"...............I......",
"......................",
"......................",
"......................"};
