/* XPM */
static char *invert[]={
"22 22 5 1",
". c None",
"a c #000000",
"# c #808080",
"c c #ff0000",
"b c #ffffff",
"......................",
"......................",
"..##################..",
"..#aaaaaaaaaaaaaaa##..",
"..#aaaaaaaaaaaaaa#b#..",
"..#aaaaaaaaaaaaa#bb#..",
"..#aaaaaaaaaaaa#bbb#..",
"..#aaaacaaaaaa#bbbb#..",
"..#aaaaacaaaa#bbbbb#..",
"..#aaaaaacaa#bbbbbb#..",
"..#aaaaaaac#bbbbbbb#..",
"..#aaaaaaa#cbbcbbbb#..",
"..#aaaaaa#bbcbcbbbb#..",
"..#aaaaa#bbbbccbbbb#..",
"..#aaaa#bbbccccbbbb#..",
"..#aaa#bbbbbbbbbbbb#..",
"..#aa#bbbbbbbbbbbbb#..",
"..#a#bbbbbbbbbbbbbb#..",
"..##bbbbbbbbbbbbbbb#..",
"..##################..",
"......................",
"......................"};
