/* XPM */
static char * max_xpm[] = {
"17 18 153 2",
"  	c None",
". 	c #E1DFDE",
"+ 	c #E0DDDC",
"@ 	c #E1DEDD",
"# 	c #E0DEDD",
"$ 	c #D6D4D3",
"% 	c #CCCAC9",
"& 	c #D3D1D1",
"* 	c #D8D6D6",
"= 	c #D3D1D0",
"- 	c #CBC9C8",
"; 	c #D6D3D2",
"> 	c #DDDAD9",
", 	c #C8C6C6",
"' 	c #E8E6E6",
") 	c #FBFAFA",
"! 	c #FCFAFA",
"~ 	c #E7E6E6",
"{ 	c #C7C5C4",
"] 	c #DDD9D8",
"^ 	c #DAD8D7",
"/ 	c #C5C4C3",
"( 	c #F3F2F2",
"_ 	c #F6F5F4",
": 	c #F4F3F2",
"< 	c #F3F2F1",
"[ 	c #F4F2F1",
"} 	c #F6F5F5",
"| 	c #F2F2F1",
"1 	c #C4C2C1",
"2 	c #DAD7D6",
"3 	c #DFDDDC",
"4 	c #C0BEBD",
"5 	c #EDECEB",
"6 	c #F0EEED",
"7 	c #EDEBEA",
"8 	c #F0EFED",
"9 	c #ECEBEA",
"0 	c #BFBCBB",
"a 	c #DFDCDB",
"b 	c #CDCBCA",
"c 	c #CDCACA",
"d 	c #E7E5E3",
"e 	c #C3C1BF",
"f 	c #C9C7C7",
"g 	c #CDCAC9",
"h 	c #BDBBBA",
"i 	c #E3E1E0",
"j 	c #E3E0DE",
"k 	c #E1DEDC",
"l 	c #949290",
"m 	c #1D1B1A",
"n 	c #878483",
"o 	c #E2DFDE",
"p 	c #BDBAB9",
"q 	c #DEDCDA",
"r 	c #B4B2B1",
"s 	c #E8E5E3",
"t 	c #DBD8D6",
"u 	c #8E8C8A",
"v 	c #282625",
"w 	c #B2B2B1",
"x 	c #2D2B2A",
"y 	c #848180",
"z 	c #E6E4E3",
"A 	c #B4B1B0",
"B 	c #DEDBD9",
"C 	c #D9D7D6",
"D 	c #B0AEAD",
"E 	c #E4E1DF",
"F 	c #D5D1CF",
"G 	c #8E8B89",
"H 	c #272524",
"I 	c #CDCCCC",
"J 	c #D6D5D5",
"K 	c #2B2928",
"L 	c #84817F",
"M 	c #AFACAC",
"N 	c #D8D6D5",
"O 	c #AFAEAD",
"P 	c #CECAC8",
"Q 	c #8E8A89",
"R 	c #CCCACA",
"S 	c #E7E5E4",
"T 	c #E4E1E0",
"U 	c #D5D5D4",
"V 	c #898685",
"W 	c #D9D7D5",
"X 	c #AFADAC",
"Y 	c #DDDBDA",
"Z 	c #B6B4B3",
"` 	c #C5C4C2",
" .	c #CBC8C4",
"..	c #C8C4C1",
"+.	c #E9E7E6",
"@.	c #CBC8C5",
"#.	c #C3C0BF",
"$.	c #B5B3B2",
"%.	c #DCD9D9",
"&.	c #C2C0BF",
"*.	c #959492",
"=.	c #D1CCCA",
"-.	c #C2BDBA",
";.	c #D1CECC",
">.	c #92908F",
",.	c #C1BFBF",
"'.	c #DEDBDB",
").	c #D6D3D1",
"!.	c #B0AEAC",
"~.	c #A9A7A5",
"{.	c #C8C3C1",
"].	c #BCB6B3",
"^.	c #C7C3C0",
"/.	c #A6A3A1",
"(.	c #B0ADAC",
"_.	c #D5D2D0",
":.	c #DEDBDA",
"<.	c #C7C4C3",
"[.	c #9F9C9B",
"}.	c #A09E9C",
"|.	c #C4C1BE",
"1.	c #BBB6B3",
"2.	c #B6B0AC",
"3.	c #BCB7B2",
"4.	c #C4C0BE",
"5.	c #9D9C9A",
"6.	c #9E9C9B",
"7.	c #C7C3C2",
"8.	c #C5C2C1",
"9.	c #A9A6A6",
"0.	c #7D7B7A",
"a.	c #A5A2A1",
"b.	c #BEBAB8",
"c.	c #C1BBBA",
"d.	c #A5A1A0",
"e.	c #7B7978",
"f.	c #A8A6A6",
"g.	c #C4C1C0",
"h.	c #DCDAD9",
"i.	c #CFCDCC",
"j.	c #BAB8B7",
"k.	c #ADABAA",
"l.	c #939191",
"m.	c #8B8A89",
"n.	c #ACABAA",
"o.	c #B9B7B6",
"p.	c #CECCCB",
"q.	c #C9C7C6",
"r.	c #D5D3D2",
"s.	c #E0DEDC",
"t.	c #DFDDDB",
"u.	c #DFDCDA",
"v.	c #E0DDDB",
"            . + + + @             ",
"        # $ % & * = - ; +         ",
"      > , ' ) ! ) ! ) ~ { ]       ",
"    ^ / ( _ : < < < [ } | 1 2     ",
"  3 4 5 6 7 7 7 7 7 7 7 8 9 0 a   ",
"  b c 7 d d d d e d d d d 5 f g   ",
"3 h i j k k k l m n k k k o . p a ",
"q r s t t t u v w x y t t t z A B ",
"C D E F F G H I ( J K L F F E M N ",
"^ O C P P Q R S P T U V P P W X C ",
"Y Z `  ...+.i ......+ 9 ..@.#.$.%.",
"3 &.*.=.-.-.-.-.-.-.-.-.-.;.>.,.'.",
"  ).!.~.{.].].].].].].].^./.(._.  ",
"  :.<.[.}.|.1.2.2.2.3.4.5.6.7.>   ",
"    Y 8.9.0.a.b.c.p d.e.f.g.h.    ",
"      Y i.j.k.l.m.l.n.o.p.h.      ",
"        + Y $ g q.% r.h.a         ",
"            s.t.u.u.v.            "};
