/* XPM */
static char * min_xpm[] = {
"17 17 149 2",
"  	c None",
". 	c #E3E0DF",
"+ 	c #E2DFDE",
"@ 	c #E1DFDE",
"# 	c #E2E0DF",
"$ 	c #D8D5D4",
"% 	c #CDCCCB",
"& 	c #D4D3D2",
"* 	c #D8D7D7",
"= 	c #D3D2D2",
"- 	c #CCCBCA",
"; 	c #D7D5D4",
"> 	c #E5E1E0",
", 	c #DFDBDA",
"' 	c #CAC7C6",
") 	c #E8E7E6",
"! 	c #FBFAFA",
"~ 	c #FCFAFA",
"{ 	c #E7E6E6",
"] 	c #C8C6C5",
"^ 	c #DEDBDA",
"/ 	c #E4E0E0",
"( 	c #DCD9D8",
"_ 	c #C7C4C3",
": 	c #F3F2F2",
"< 	c #F6F5F4",
"[ 	c #F4F3F2",
"} 	c #F3F2F1",
"| 	c #F4F2F1",
"1 	c #F6F5F5",
"2 	c #F2F2F1",
"3 	c #C5C3C3",
"4 	c #DBD8D8",
"5 	c #E1DEDD",
"6 	c #C1BFBE",
"7 	c #EDECEB",
"8 	c #F0EEED",
"9 	c #EDEBEA",
"0 	c #F0EFED",
"a 	c #ECEBEA",
"b 	c #BFBDBC",
"c 	c #E0DDDC",
"d 	c #CFCCCB",
"e 	c #CDCACA",
"f 	c #E7E5E3",
"g 	c #C9C8C7",
"h 	c #CECBCA",
"i 	c #BEBCBB",
"j 	c #E3E1E0",
"k 	c #E3E0DE",
"l 	c #E1DEDC",
"m 	c #C5C2C0",
"n 	c #D9D6D4",
"o 	c #DBD8D6",
"p 	c #C4C1C0",
"q 	c #BEBBBA",
"r 	c #E0DDDB",
"s 	c #B5B3B1",
"t 	c #E8E5E3",
"u 	c #696665",
"v 	c #484645",
"w 	c #D2CFCD",
"x 	c #D5D2D0",
"y 	c #514F4E",
"z 	c #5D5B5A",
"A 	c #E6E4E3",
"B 	c #B5B2B1",
"C 	c #DFDCDA",
"D 	c #DBD8D7",
"E 	c #B1AFAE",
"F 	c #E4E1DF",
"G 	c #D5D1CF",
"H 	c #E7E6E5",
"I 	c #555352",
"J 	c #474443",
"K 	c #C6C3C1",
"L 	c #504D4C",
"M 	c #4B4948",
"N 	c #AFADAC",
"O 	c #DAD7D6",
"P 	c #D9D7D6",
"Q 	c #CECAC8",
"R 	c #D6D3D1",
"S 	c #565453",
"T 	c #282624",
"U 	c #4C4A49",
"V 	c #D9D7D5",
"W 	c #B0AEAD",
"X 	c #DFDCDB",
"Y 	c #B7B5B4",
"Z 	c #C5C4C2",
"` 	c #CBC8C4",
" .	c #C8C4C1",
"..	c #D1CECB",
"+.	c #F5F5F4",
"@.	c #605E5D",
"#.	c #F1F1F0",
"$.	c #D3D0CE",
"%.	c #CBC8C5",
"&.	c #C3C0C0",
"*.	c #B6B4B3",
"=.	c #959593",
"-.	c #D1CCCA",
";.	c #C2BDBA",
">.	c #CCC8C5",
",.	c #FCFBFB",
"'.	c #CFCBC8",
").	c #D1CECC",
"!.	c #93908F",
"~.	c #D7D5D3",
"{.	c #B1B0AE",
"].	c #A9A8A5",
"^.	c #C8C3C1",
"/.	c #BCB6B3",
"(.	c #C7C3C0",
"_.	c #A6A4A1",
":.	c #B1AFAD",
"<.	c #D7D4D2",
"[.	c #9F9D9D",
"}.	c #A19E9C",
"|.	c #C4C1BE",
"1.	c #BBB6B3",
"2.	c #B6B0AC",
"3.	c #BCB7B2",
"4.	c #C4C0BE",
"5.	c #9E9C9A",
"6.	c #9F9D9C",
"7.	c #C8C5C4",
"8.	c #DEDCDB",
"9.	c #C6C4C3",
"0.	c #A9A8A7",
"a.	c #7D7B7B",
"b.	c #A5A2A1",
"c.	c #BEBAB8",
"d.	c #C1BCBA",
"e.	c #BDBAB9",
"f.	c #A5A1A0",
"g.	c #7C7979",
"h.	c #A9A7A6",
"i.	c #C6C3C2",
"j.	c #DEDBDB",
"k.	c #D0CECE",
"l.	c #BBB9B9",
"m.	c #AEABAB",
"n.	c #949291",
"o.	c #8C8A8A",
"p.	c #BBB9B8",
"q.	c #D0CECD",
"r.	c #CBC8C7",
"            . + @ @ #             ",
"        + $ % & * = - ; @         ",
"    > , ' ) ! ~ ! ~ ! { ] ^ /     ",
"    ( _ : < [ } } } | 1 2 3 4     ",
"  5 6 7 8 9 9 9 9 9 9 9 0 a b c   ",
"  d e 9 f f f f f f f f f 7 g h   ",
"5 i j k l m n l l l o p l + @ q c ",
"r s t o o u v w o x y z o o A B C ",
"D E F G G H I J K L M A G G F N O ",
"( E P Q Q R 1 S T U : $ Q Q V W D ",
"X Y Z `  . ...+.@.#.$. . .%.&.*.^ ",
"  p =.-.;.;.;.>.,.'.;.;.;.).!.&.  ",
"  ~.{.].^./././././././.(._.:.<.  ",
"    ] [.}.|.1.2.2.2.3.4.5.6.7.    ",
"    8.9.0.a.b.c.d.e.f.g.h.i.j.    ",
"        k.l.m.n.o.n.m.p.q.        ",
"            ; h r.h ;             "};
