/* XPM */
static char *dummy[]={
"22 22 3 1",
". c None",
"# c #000000",
"a c #ff0000",
"......................",
"......................",
"...#################..",
".......aa.....aa......",
"......a..aaaaa..a.....",
".....a...........a....",
".....a...........a....",
".....a...........a....",
".....a...........a....",
".....a...........a....",
".....a...........a....",
".....a...........a....",
".....a...........a....",
".....a...........a....",
".....a...........a....",
".....a...........a....",
".....a...........a....",
"....a.............a...",
"...a...............a..",
"...#################..",
"......................",
"......................"};
