/* XPM */
static char *graphic[] = {
"18 18 97 2",
".. c None",
"., c #000000",
".- c #4E331B",
".* c #E5A566",
".a c #FED39A",
".b c #FEC585",
".c c #FDC587",
".d c #FEC282",
".e c #F8AC62",
".f c #FEC88A",
".g c #53504D",
".h c #55524F",
".i c #5C5A57",
".j c #54514E",
".k c #565350",
".l c #C4864E",
".m c #524F4C",
".n c #F5F5F5",
".o c #ECECEC",
".p c #E4E4E4",
".q c #DCDCDC",
".r c #D4D4D4",
".s c #CBCBCB",
".t c #C4C4C4",
".u c #BCBCBC",
".v c #B5B5B5",
".w c #B3B3B3",
".x c #303030",
".y c #4A3119",
".z c #DBDBDB",
".A c #DFDFDE",
".B c #E8E8E7",
".C c #E6E6E4",
".D c #D2D2D1",
".E c #C7C7C6",
".F c #BABAB9",
".G c #ADADAC",
".H c #A0A09F",
".I c #949493",
".J c #494948",
".K c #B77D44",
".L c #53514E",
".M c #DADADA",
".N c #DBDBDA",
".O c #E1E1E0",
".P c #DDDDDC",
".Q c #D6D6D5",
".R c #CBCBCA",
".S c #C1C1C0",
".T c #B6B6B5",
".U c #A9A9A8",
".V c #686867",
".W c #222221",
".X c #493018",
".Y c #CDCDCD",
".Z c #CACAC9",
".0 c #D5D5D4",
".1 c #D2D2D0",
".2 c #CCCCCB",
".3 c #C2C2C1",
".4 c #B9B9B8",
".5 c #AFAFAE",
".6 c #A2A2A1",
".7 c #959594",
".8 c #CECECE",
".9 c #BEBEBC",
".@ c #C4C4C2",
".# c #C6C6C5",
".; c #C3C3C2",
".: c #BFBFBE",
".= c #AEAEAD",
".+ c #A5A5A4",
".% c #9E9E9D",
".$ c #6F6F6E",
".( c #121212",
".) c #BDBDBD",
".[ c #A6A6A5",
".] c #AAAAA8",
",. c #ADADAB",
",, c #AEAEAC",
",- c #ABABAA",
",* c #A7A7A6",
",a c #A1A1A0",
",b c #9A9A99",
",c c #949492",
",d c #8D8D8B",
",e c #232323",
",f c #4A4A4A",
",g c #4A4A49",
",h c #4C4C4B",
",i c #4C4C4C",
",j c #4B4B4A",
",k c #464646",
",l c #434343",
",m c #414140",
",n c #343433",
",o c #1F1F1E",
".............,.,.,.,................",
"...........,.,...,.,.,.,...,........",
".........,...........,.,.,.,........",
".......................,.,.,........",
".....................,.,.,.,........",
"...-.-.-.-..........................",
".-.*.a.b.*.-.-.-.-.-.-.-............",
".-.a.c.d.e.e.e.e.e.e.e.e.,..........",
".-.f.d.-.g.g.h.i.j.j.k.k.j.,.,.,....",
".-.d.l.m.n.n.o.p.q.r.s.t.u.v.w.x....",
".-.d.y.z.A.B.C.A.D.E.F.G.H.I.J......",
".-.K.L.M.N.O.P.Q.R.S.T.U.H.V.W......",
".-.X.Y.Z.0.0.1.2.3.4.5.6.7.J........",
".-.k.8.9.@.#.;.:.T.=.+.%.$.(........",
".-.).[.],.,,,-,*,a,b,c,d.J..........",
",e,f,g,h,i,h,j.J,k,l,m,n,o..........",
"....................................",
"...................................."}
