/* XPM */
static char * add_xpm[] = {
"16 16 3 1",
" 	c None",
".	c #006800",
"+	c #02D902",
"                ",
"                ",
"      ....      ",
"      .++.      ",
"      .++.      ",
"      .++.      ",
"  .....++.....  ",
"  .++++++++++.  ",
"  .++++++++++.  ",
"  .....++.....  ",
"      .++.      ",
"      .++.      ",
"      .++.      ",
"      ....      ",
"                ",
"                "};
