/* XPM */
static char *dummy[]={
"22 22 4 1",
". c None",
"# c #000000",
"b c #00c000",
"a c #ff0000",
"......................",
"......................",
"...........#..........",
".......aa..#..aa......",
"......a..aaaaa..a.....",
".....a.....#.....a....",
".....a.....#.....a....",
".....a.....#.....a....",
".....a.....#.....ab...",
".....abbbbbbbbbbbbbb..",
"....ba.....#.....ab...",
"...bbbbbbbbbbbbbba....",
"....ba.....#.....a....",
".....a.....#.....a....",
".....a.....#.....a....",
".....a.....#.....a....",
".....a.....#.....a....",
"....a......#......a...",
"...a.......#.......a..",
"...#################..",
"......................",
"......................"};
