/* XPM */
static char *dummy[]={
"16 16 61 1",
". c None",
"o c #020202",
"g c #030303",
"2 c #111111",
"f c #121212",
"# c #121212",
"0 c #404040",
"K c #404040",
"e c #414141",
"a c #414141",
"5 c #414141",
"n c #424242",
"3 c #434343",
"h c #434343",
"6 c #535353",
"w c #535353",
"p c #545454",
"Y c #5d5d5d",
"b c #5d5d5d",
"c c #616161",
"m c #636363",
"d c #616161",
"1 c #636363",
"i c #646464",
"v c #727272",
"q c #727272",
"x c #737373",
"Z c #7d7d7d",
"J c #7e7e7e",
"F c #7f7f7f",
"E c #757575",
"H c #767676",
"L c #777777",
"j c #7f7f7f",
"k c #8e8e8e",
"r c #919191",
"l c #929292",
"y c #959595",
"T c #989898",
"s c #9a9a9a",
"t c #a0a0a0",
"u c #a3a3a3",
"Q c #a5a5a5",
"z c #a9a9a9",
"B c #acacac",
"P c #afafaf",
"A c #b0b0b0",
"4 c #b3b3b3",
"D c #b4b4b4",
"G c #b6b6b6",
"C c #b7b7b7",
"I c #bababa",
"R c #bebebe",
"V c #bfbfbf",
"M c #c2c2c2",
"O c #c4c4c4",
"W c #cecece",
"U c #d4d4d4",
"X c #dcdcdc",
"N c #e5e5e5",
"S c #f3f3f3",
"....#abcdbef....",
"..ghijkllkjmno..",
".gpqrstuutsrvwo.",
".hxytzABBAztyvn.",
"#irtBCDEEDCBtrmf",
"eFszCGHCIHDCzsJK",
"bktAALMNNOLPAtkb",
"cluQERNSSNREQulc",
"cluTDUNSSNUDTulc",
"bktAVWXNNXWVAtkY",
"eJszCOWUUWOCzsZ0",
"f1rtBCVOOVCBtrm2",
".3vytzA44Aztyv5.",
".owvrstuutsrv6o.",
"..on1jkllkZm5o..",
"....f0bccb02...."};
