/* XPM */
static char *dummy[]={
"16 16 63 1",
". c None",
"o c #020202",
"g c #030303",
"5 c #111111",
"f c #121212",
"# c #121212",
"3 c #404040",
"K c #404040",
"e c #414141",
"a c #414141",
"7 c #414141",
"n c #424242",
"6 c #434343",
"h c #434343",
"8 c #535353",
"w c #535353",
"p c #545454",
"0 c #5d5d5d",
"b c #5d5d5d",
"c c #616161",
"m c #636363",
"d c #616161",
"4 c #636363",
"i c #646464",
"v c #727272",
"q c #727272",
"x c #737373",
"2 c #7d7d7d",
"J c #7e7e7e",
"G c #7f7f7f",
"j c #7f7f7f",
"U c #828282",
"R c #848484",
"Y c #898989",
"N c #8b8b8b",
"W c #8c8c8c",
"k c #8e8e8e",
"r c #919191",
"l c #929292",
"y c #959595",
"O c #979797",
"S c #999999",
"s c #9a9a9a",
"T c #9d9d9d",
"t c #a0a0a0",
"u c #a3a3a3",
"z c #a9a9a9",
"C c #acacac",
"A c #b0b0b0",
"Q c #b1b1b1",
"B c #b3b3b3",
"D c #b7b7b7",
"Z c #bdbdbd",
"V c #bebebe",
"E c #bfbfbf",
"1 c #c3c3c3",
"F c #c4c4c4",
"H c #cecece",
"I c #d4d4d4",
"L c #dcdcdc",
"X c #e4e4e4",
"M c #e5e5e5",
"P c #f3f3f3",
"....#abcdbef....",
"..ghijkllkjmno..",
".gpqrstuutsrvwo.",
".hxytzABBAztyvn.",
"#irtCDEFFEDCtrmf",
"eGszDFHIIHFDzsJK",
"bktAEHLMMLHEAtkb",
"cluNOIMPPMIONulc",
"cluQRSMPPMTUAulc",
"bktAVWOXXsYZAtk0",
"eJszD1kllk1Dzs23",
"f4rtCDVkkVDCtrm5",
".6vytzABBAztyv7.",
".owvrstuutsrv8o.",
"..on4jkllk2m7o..",
"....f3bccb35...."};
