/* XPM */
static char * save_xpm[] = {
"16 16 5 1",
" 	c None",
".	c #3465A4",
"+	c #F35959",
"@	c #EEEEEC",
"#	c #BABDB6",
".+++++++++++++. ",
".+++++++++++++. ",
".@@@@@@@@@@@@@. ",
".@@@@@@@@@@@@@. ",
".@@@@@@@@@@@@@. ",
".@@@@@@@@@@@@@. ",
".@@@@@@@@@@@@@. ",
".@@@@@@@@@@@@@. ",
"............... ",
"............... ",
"...#######..... ",
"...#.#####..... ",
"...#.#####..... ",
"...#.#####..... ",
"...#.#####..... ",
" ..#######..... "};
